<mxfile host="Electron" agent="Mozilla/5.0 (Windows NT 10.0; Win64; x64) AppleWebKit/537.36 (KHTML, like Gecko) draw.io/24.7.17 Chrome/128.0.6613.36 Electron/32.0.1 Safari/537.36" version="24.7.17">
  <diagram id="C5RBs43oDa-KdzZeNtuy" name="Page-1">
    <mxGraphModel dx="597" dy="459" grid="0" gridSize="10" guides="1" tooltips="1" connect="1" arrows="1" fold="1" page="1" pageScale="1" pageWidth="827" pageHeight="1169" math="0" shadow="0">
      <root>
        <mxCell id="WIyWlLk6GJQsqaUBKTNV-0" />
        <mxCell id="WIyWlLk6GJQsqaUBKTNV-1" parent="WIyWlLk6GJQsqaUBKTNV-0" />
        <mxCell id="m5HEypRgn1S021vzcLPU-3" value="" style="edgeStyle=orthogonalEdgeStyle;rounded=0;orthogonalLoop=1;jettySize=auto;html=1;" edge="1" parent="WIyWlLk6GJQsqaUBKTNV-1">
          <mxGeometry relative="1" as="geometry">
            <mxPoint x="310" y="91" as="sourcePoint" />
            <mxPoint x="390" y="91" as="targetPoint" />
          </mxGeometry>
        </mxCell>
        <mxCell id="WIyWlLk6GJQsqaUBKTNV-3" value="Business understanding" style="rounded=1;whiteSpace=wrap;html=1;fontSize=12;glass=0;strokeWidth=1;shadow=0;" parent="WIyWlLk6GJQsqaUBKTNV-1" vertex="1">
          <mxGeometry x="160" y="70" width="150" height="60" as="geometry" />
        </mxCell>
        <mxCell id="m5HEypRgn1S021vzcLPU-6" style="edgeStyle=orthogonalEdgeStyle;rounded=0;orthogonalLoop=1;jettySize=auto;html=1;" edge="1" parent="WIyWlLk6GJQsqaUBKTNV-1">
          <mxGeometry relative="1" as="geometry">
            <mxPoint x="390" y="111" as="sourcePoint" />
            <mxPoint x="310" y="111" as="targetPoint" />
            <Array as="points">
              <mxPoint x="350" y="111" />
              <mxPoint x="350" y="111" />
            </Array>
          </mxGeometry>
        </mxCell>
        <mxCell id="m5HEypRgn1S021vzcLPU-10" value="" style="group" vertex="1" connectable="0" parent="WIyWlLk6GJQsqaUBKTNV-1">
          <mxGeometry x="390" y="70" width="320" height="60" as="geometry" />
        </mxCell>
        <mxCell id="m5HEypRgn1S021vzcLPU-2" value="Data understanding" style="whiteSpace=wrap;html=1;rounded=1;glass=0;strokeWidth=1;shadow=0;" vertex="1" parent="m5HEypRgn1S021vzcLPU-10">
          <mxGeometry width="120" height="60" as="geometry" />
        </mxCell>
        <mxCell id="m5HEypRgn1S021vzcLPU-9" value="" style="group" vertex="1" connectable="0" parent="m5HEypRgn1S021vzcLPU-10">
          <mxGeometry x="120" width="200" height="60" as="geometry" />
        </mxCell>
        <mxCell id="m5HEypRgn1S021vzcLPU-5" value="" style="edgeStyle=orthogonalEdgeStyle;rounded=0;orthogonalLoop=1;jettySize=auto;html=1;" edge="1" parent="m5HEypRgn1S021vzcLPU-9">
          <mxGeometry relative="1" as="geometry">
            <mxPoint y="29.760000000000005" as="sourcePoint" />
            <mxPoint x="80" y="29.760000000000005" as="targetPoint" />
          </mxGeometry>
        </mxCell>
        <mxCell id="m5HEypRgn1S021vzcLPU-4" value="Data preparation" style="whiteSpace=wrap;html=1;rounded=1;glass=0;strokeWidth=1;shadow=0;" vertex="1" parent="m5HEypRgn1S021vzcLPU-9">
          <mxGeometry x="80" width="120" height="60" as="geometry" />
        </mxCell>
      </root>
    </mxGraphModel>
  </diagram>
</mxfile>
